<!-- SVG Placeholder untuk Class Photo 1 -->
<svg width="800" height="500" viewBox="0 0 800 500" fill="none" xmlns="http://www.w3.org/2000/svg">
  <rect width="800" height="500" fill="url(#paint0_linear_1_1)"/>
  
  <!-- People silhouettes -->
  <g opacity="0.8">
    <!-- Person 1 -->
    <circle cx="200" cy="200" r="30" fill="white" opacity="0.9"/>
    <rect x="170" y="230" width="60" height="80" rx="30" fill="white" opacity="0.9"/>
    
    <!-- Person 2 -->
    <circle cx="320" cy="180" r="35" fill="white" opacity="0.9"/>
    <rect x="285" y="215" width="70" height="90" rx="35" fill="white" opacity="0.9"/>
    
    <!-- Person 3 -->
    <circle cx="480" cy="190" r="32" fill="white" opacity="0.9"/>
    <rect x="448" y="222" width="64" height="85" rx="32" fill="white" opacity="0.9"/>
    
    <!-- Person 4 -->
    <circle cx="600" cy="200" r="30" fill="white" opacity="0.9"/>
    <rect x="570" y="230" width="60" height="80" rx="30" fill="white" opacity="0.9"/>
  </g>
  
  <!-- Building silhouette in background -->
  <rect x="50" y="350" width="700" height="150" fill="rgba(255,255,255,0.1)"/>
  <rect x="150" y="300" width="100" height="50" fill="rgba(255,255,255,0.15)"/>
  <rect x="350" y="280" width="120" height="70" fill="rgba(255,255,255,0.15)"/>
  <rect x="550" y="320" width="90" height="30" fill="rgba(255,255,255,0.15)"/>
  
  <!-- Title overlay -->
  <rect x="0" y="400" width="800" height="100" fill="url(#paint1_linear_1_1)"/>
  <text x="400" y="440" text-anchor="middle" font-family="Arial Black" font-size="32" fill="white">ORIENTASI MAHASISWA BARU</text>
  <text x="400" y="470" text-anchor="middle" font-family="Arial" font-size="18" fill="rgba(255,255,255,0.8)">Agustus 2025</text>
  
  <defs>
    <linearGradient id="paint0_linear_1_1" x1="0" y1="0" x2="800" y2="500" gradientUnits="userSpaceOnUse">
      <stop stop-color="#059669"/>
      <stop offset="0.5" stop-color="#10b981"/>
      <stop offset="1" stop-color="#34d399"/>
    </linearGradient>
    <linearGradient id="paint1_linear_1_1" x1="0" y1="400" x2="0" y2="500" gradientUnits="userSpaceOnUse">
      <stop stop-color="transparent"/>
      <stop offset="1" stop-color="rgba(0,0,0,0.7)"/>
    </linearGradient>
  </defs>
</svg>
